HIERARCHY
ROOT Hips
{
	OFFSET 0.00000 0.00000 0.00000
	CHANNELS 6 Xposition Yposition Zposition Zrotation Yrotation Xrotation 
	JOINT LHipJoint
	{
		OFFSET 0 0 0
		CHANNELS 3 Zrotation Yrotation Xrotation
		JOINT LeftHip
		{
			OFFSET 1.62329 -1.80800 0.67318
			CHANNELS 3 Zrotation Yrotation Xrotation
			JOINT LeftKnee
			{
				OFFSET 2.57139 -7.06484 0.00000
				CHANNELS 3 Zrotation Yrotation Xrotation
				JOINT LeftAnkle
				{
					OFFSET 2.52017 -6.92413 0.00000
					CHANNELS 3 Zrotation Yrotation Xrotation
					JOINT LeftToe
					{
						OFFSET 0.23295 -0.64001 2.10214
						CHANNELS 3 Zrotation Yrotation Xrotation
						End Site
						{
							OFFSET 0.00000 -0.00000 1.10139
						}
					}
				}
			}
		}
	}
	JOINT RHipJoint
	{
		OFFSET 0 0 0
		CHANNELS 3 Zrotation Yrotation Xrotation
		JOINT RightHip
		{
			OFFSET -1.48061 -1.80800 0.67318
			CHANNELS 3 Zrotation Yrotation Xrotation
			JOINT RightKnee
			{
				OFFSET -2.63258 -7.23296 0.00000
				CHANNELS 3 Zrotation Yrotation Xrotation
				JOINT RightAnkle
				{
					OFFSET -2.54779 -7.00000 0.00000
					CHANNELS 3 Zrotation Yrotation Xrotation
					JOINT RightToe
					{
						OFFSET -0.23067 -0.63376 2.12161
						CHANNELS 3 Zrotation Yrotation Xrotation
						End Site
						{
							OFFSET -0.00000 -0.00000 1.11000
						}
					}
				}
			}
		}
	}
	JOINT lowerback
	{
		OFFSET 0 0 0
		CHANNELS 3 Zrotation Yrotation Xrotation
		JOINT Chest
		{
			OFFSET -0.02108 2.07573 -0.16981
			CHANNELS 3 Zrotation Yrotation Xrotation
			JOINT Chest2
			{
				OFFSET 0.05070 2.08439 -0.03141
				CHANNELS 3 Zrotation Yrotation Xrotation
				JOINT lowerneck
				{
					OFFSET 0 0 0
					CHANNELS 3 Zrotation Yrotation Xrotation
					JOINT Neck
					{
						OFFSET -0.10731 1.60408 0.31370
						CHANNELS 3 Zrotation Yrotation Xrotation
						JOINT Head
						{
							OFFSET 0.08411 1.65679 -0.30822
							CHANNELS 3 Zrotation Yrotation Xrotation
							End Site
							{
								OFFSET 0.03911 1.69149 -0.14146
							}
						}
					}
				}
				JOINT LeftCollar
				{
					OFFSET 0 0 0
					CHANNELS 3 Zrotation Yrotation Xrotation
					JOINT LeftShoulder
					{
						OFFSET 3.52315 0.73219 -0.54694
CHANNELS 3 Zrotation Xrotation Yrotation
						JOINT LeftElbow
						{
OFFSET 0 -5.324620 -0.000000
CHANNELS 3 Zrotation Xrotation Yrotation
							JOINT LeftWrist
							{
OFFSET 0 -3.484020 -0.000000
CHANNELS 3 Zrotation Xrotation Yrotation
								JOINT lhand
								{
									OFFSET 0 0 0
CHANNELS 3 Zrotation Xrotation Yrotation
									JOINT LFingers
									{
OFFSET 0 -0.572480 -0.000000
CHANNELS 3 Zrotation Xrotation Yrotation
										End Site
										{
OFFSET 0 -0.461540 -0.000000
										}
									}
								}
								JOINT LThumb
								{
OFFSET 0 0.000000 0.000000
CHANNELS 3 Zrotation Xrotation Yrotation
									End Site
									{
OFFSET 0 -0.468590 0.468590
									}
								}
							}
						}
					}
				}
				JOINT RightCollar
				{
					OFFSET 0 0 0
					CHANNELS 3 Zrotation Yrotation Xrotation
					JOINT RightShoulder
					{
						OFFSET -3.41766 0.93592 -0.10019
CHANNELS 3 Zrotation Xrotation Yrotation
						JOINT RightElbow
						{
OFFSET 0 -5.335890 -0.000000
CHANNELS 3 Zrotation Xrotation Yrotation
							JOINT RightWrist
							{
OFFSET 0 -3.641340 -0.000000
CHANNELS 3 Zrotation Xrotation Yrotation
								JOINT rhand
								{
									OFFSET 0 0 0
CHANNELS 3 Zrotation Xrotation Yrotation
									JOINT RFingers
									{
OFFSET 0 -0.734810 -0.000000
CHANNELS 3 Zrotation Xrotation Yrotation
										End Site
										{
OFFSET 0 -0.592420 -0.000000
										}
									}
								}
								JOINT RThumb
								{
OFFSET 0 0.000000 0.000000
CHANNELS 3 Zrotation Xrotation Yrotation
									End Site
									{
OFFSET 0 -0.601470 0.601470
									}
								}
							}
						}
					}
				}
			}
		}
	}
}
MOTION
Frames: 4
Frame Time: 0.008333333333333333
-0.679600 17.512300 4.695500 3.111900 -35.532800 0.469100 0.000000 0.000000 0.000000 -26.041800 -2.543500 -2.613900 2.367600 9.593200 27.669000 1.083800 -2.094000 -19.089800 0.344100 -3.769500 -10.429200 0.000000 0.000000 0.000000 17.550700 5.133000 -20.715400 -4.750500 -13.097200 39.733600 -1.596200 -3.058800 -25.132800 -0.247800 -3.203200 8.844900 -6.600800 -1.197300 0.285700 2.179400 -1.629700 -0.577300 5.981900 -0.781300 -0.510000 -13.723200 -4.420300 -18.496900 4.030800 -3.396200 30.567700 3.343400 -2.630600 13.859200 0.000000 0.000000 0.000000 -1.365100 2.391100 -11.072900 12.219900 -20.133600 2.177400 19.039400 16.296400 -22.153500 0.000000 0.000000 0.000000 -7.125000 0.000000 0.000000 -10.200700 52.995300 2.023300 0.000000 0.000000 0.000000 -4.503000 5.466100 4.849200 -14.398500 -23.301600 -2.983900 -23.126900 10.467500 -4.487200 0.000000 0.000000 0.000000 7.125000 0.000000 -0.000000 2.648800 25.102000 1.276200
-0.781473 17.549015 4.703903 2.806389 -35.234897 0.965390 0.000000 0.000000 0.000000 -25.491533 -3.144107 -2.627030 2.386409 9.628375 27.781559 1.024060 -2.047377 -18.549927 0.257859 -3.266853 -9.022653 0.000000 0.000000 0.000000 18.157534 5.267567 -20.265514 -4.574169 -12.887554 38.948973 -1.598627 -3.407530 -25.315709 -0.247629 -3.201825 8.841140 -6.160057 -1.039718 0.010546 2.196245 -1.398328 -0.471117 5.741052 -0.678182 -0.290177 -13.837989 -4.690890 -18.097009 4.390855 -3.921657 29.951969 3.407920 -2.798843 13.575666 0.000000 0.000000 0.000000 -1.340137 1.906536 -12.450941 12.458445 -20.488557 2.260219 18.706295 15.596913 -22.417498 0.000000 0.000000 0.000000 -7.125000 0.000000 0.000000 -10.639141 53.202308 2.165938 0.000000 0.000000 0.000000 -4.314703 4.980742 6.347546 -14.718386 -23.752341 -3.111655 -22.327435 11.307449 -3.614100 0.000000 0.000000 0.000000 7.125000 0.000000 0.000000 3.256174 26.071687 1.496142
-0.874569 17.574386 4.726786 3.076148 -34.872726 1.125268 0.000000 0.000000 0.000000 -25.521044 -3.444852 -2.596033 2.366080 9.590260 27.659675 0.977436 -1.903294 -18.142261 0.318912 -3.629878 -10.037685 0.000000 0.000000 0.000000 18.159524 5.245345 -20.014337 -4.463474 -12.752882 38.450251 -1.622236 -3.560068 -25.562486 -0.257793 -3.266936 9.022725 -6.117619 -0.900704 -0.276921 2.130098 -1.194649 -0.417848 5.642408 -0.584140 -0.105400 -13.863821 -4.912009 -17.820534 4.530066 -4.309415 29.462279 3.394169 -2.933460 13.356545 0.000000 0.000000 0.000000 -1.238734 1.217401 -14.308633 12.681807 -20.819218 2.338946 18.873408 15.109382 -22.357546 0.000000 0.000000 0.000000 -7.125000 0.000000 0.000000 -10.447359 53.172075 2.118530 0.000000 0.000000 0.000000 -4.765935 5.052570 11.291844 -15.810165 -25.262429 -3.564600 -21.978727 9.500474 -1.444922 0.000000 0.000000 0.000000 7.125000 0.000000 0.000000 3.565552 28.414926 1.441818
-0.950555 17.590492 4.724703 2.815572 -34.471693 1.578966 0.000000 0.000000 0.000000 -25.013994 -4.034052 -2.685830 2.381038 9.618393 27.749529 0.967332 -2.016972 -18.019256 0.316176 -3.613323 -9.991396 0.000000 0.000000 0.000000 18.612667 5.421528 -19.808188 -4.370409 -12.637659 38.026949 -1.672645 -3.587088 -25.940735 -0.317694 -3.622993 10.018379 -5.612094 -0.826501 -0.196599 2.226917 -1.100158 -0.390342 5.457446 -0.537410 -0.142677 -14.418178 -5.089667 -17.574092 5.241703 -4.638785 28.974873 3.708580 -3.028095 13.173143 0.000000 0.000000 0.000000 -1.249849 0.696923 -16.107609 13.328328 -21.766288 2.573858 18.757216 14.662805 -22.402214 0.000000 0.000000 0.000000 -7.125000 0.000000 0.000000 -10.581920 53.196088 2.152529 0.000000 0.000000 0.000000 -5.334085 4.240236 12.209220 -15.912735 -25.402081 -3.608496 -20.667291 11.073264 -4.714198 0.000000 0.000000 0.000000 7.125000 0.000000 0.000000 4.494282 24.942381 2.185710
